# xmcd
#
# Track frame offsets: 
#        187
#        23187
#        44050
#        67292
#        88210
#        115602
#
# Disc length: 1777 seconds
#
# Revision: 7
# Processed by: cddbd v1.5.2PL0 Copyright (c) Steve Scherf et al.
# Submitted via: ExactAudioCopy v1.0b3
#
DISCID=5406ef06
DTITLE=ANGRA - FREEDOM CALL (JAPANESE EDITION)
DYEAR=1996
DGENRE=Heavy Metal
TTITLE0=Freedom Call
TTITLE1=Queen Of The Night (Remixed Version)
TTITLE2=Reaching Horizons
TTITLE3=Stand Away (Orchestral Version)
TTITLE4=Painkiller (Judas Priest Cover)
TTITLE5=Deep Blue (Edit Version)
EXTD=
EXTT0=
EXTT1=
EXTT2=
EXTT3=
EXTT4=
EXTT5=
PLAYORDER=
